<svg xmlns="http://www.w3.org/2000/svg" viewBox="0 0 30 30">
  <g>
    <path xmlns="http://www.w3.org/2000/svg" d="M 14.980469 0 C 10.826469 0 7.3106406 1.4496094 4.4316406 4.3496094 C 1.4776406 7.3496094 -5.9211895e-16 10.9 0 15 C 0 19.1 1.4776406 22.626172 4.4316406 25.576172 C 7.3846406 28.526172 10.900469 30 14.980469 30 C 19.110469 30 22.69075 28.512109 25.71875 25.537109 C 28.57275 22.712109 30 19.2 30 15 C 30 10.8 28.548531 7.2496094 25.644531 4.3496094 C 22.740531 1.4496094 19.187469 0 14.980469 0 z M 15.019531 2.6992188 C 18.422531 2.6992188 21.313406 3.9007813 23.691406 6.3007812 C 26.093406 8.6757812 27.294922 11.574 27.294922 15 C 27.294922 16.269 27.134406 17.457406 26.816406 18.566406 L 20.710938 15.847656 L 20.572266 15.785156 L 20.669922 15.242188 L 23 15.242188 L 23 13.484375 L 20.984375 13.484375 L 21.236328 12.033203 L 23 12.033203 L 23 10.275391 L 21.560547 10.275391 L 22.148438 7 L 19.119141 7 L 18.693359 10.275391 L 16.716797 10.275391 L 16.28125 7 L 13.658203 7 L 13.220703 10.275391 L 11.224609 10.275391 L 10.800781 7 L 7.7695312 7 L 8.3574219 10.275391 L 8.1953125 10.275391 L 4.5136719 8.6347656 C 5.0501645 7.7906929 5.676354 7.0087358 6.3828125 6.3007812 C 8.7358125 3.9007813 11.613531 2.6992187 15.019531 2.6992188 z M 3.2480469 11.353516 L 8.0351562 13.484375 L 7 13.484375 L 7 15.242188 L 9.2402344 15.242188 L 10.638672 23 L 13.728516 23 L 14.654297 16.431641 L 15.298828 16.71875 L 16.201172 23 L 19.28125 23 L 20.029297 18.826172 L 20.712891 19.130859 L 25.609375 21.310547 C 25.093561 22.14398 24.474879 22.909363 23.767578 23.587891 L 23.765625 23.587891 C 21.287625 26.037891 18.372531 27.261719 15.019531 27.261719 C 11.664531 27.261719 8.7737031 26.048047 6.3457031 23.623047 C 3.9177031 21.199047 2.703125 18.324 2.703125 15 C 2.703125 13.721 2.8860469 12.506516 3.2480469 11.353516 z M 12.142578 12.033203 L 12.988281 12.033203 L 12.941406 12.388672 L 12.142578 12.033203 z M 16.960938 12.033203 L 18.470703 12.033203 L 18.289062 13.484375 L 17.152344 13.484375 L 16.960938 12.033203 z M 11.873047 15.242188 L 11.982422 15.242188 L 12.53125 15.486328 L 12.21875 17.890625 L 11.873047 15.242188 z " fill="currentColor"/>
</g>
</svg>
